<svg width="1920" height="1080" viewBox="0 0 1920 1080" fill="none" xmlns="http://www.w3.org/2000/svg">
<g clip-path="url(#clip0)">
<g opacity="0.6" filter="url(#filter0_f)">
<path d="M1581.56 80.6098L1581.48 80.725C1577.25 86.9125 1570.3 92.7961 1561.62 96.8912L1525.36 112.297C1505.84 119.712 1479.22 133.5 1466.19 142.936L1438.06 160.866C1422.59 169.684 1388 177.609 1361.2 178.477L1308.41 179.087C1281.54 178.793 1238.41 180.988 1212.57 183.965L1161.07 188.668C1134.58 190.511 1096.15 186.304 1075.67 179.319L1037.27 164.777C1018.79 156.944 984.415 146.264 960.893 141.041L916.189 129.757C894.205 123.55 874.446 109.672 872.283 98.9245L870.76 77.7468C871.492 66.9658 866.015 49.6635 858.592 39.2978L846.874 18.6427C844.602 13.3927 846.025 6.97364 850.136 0.829891L850.433 0.393043C854.671 -5.73624 861.574 -11.556 870.181 -15.6164L906.433 -31.0198C925.954 -38.4358 952.577 -52.2211 965.601 -61.6591L993.723 -79.5874C1009.2 -88.4068 1043.79 -96.3303 1070.59 -97.2002L1123.38 -97.8108C1150.25 -97.5187 1193.38 -99.7128 1219.22 -102.693L1270.72 -107.391C1297.21 -109.237 1335.64 -105.03 1356.11 -98.0417L1394.52 -83.4974C1413.01 -75.6672 1447.38 -64.9872 1470.9 -59.7622L1515.6 -48.4795C1537.58 -42.2698 1557.34 -28.3946 1559.5 -17.6467L1561.03 3.53085C1560.29 14.3141 1565.77 31.6141 1573.19 41.9802L1584.92 62.6385C1587.21 67.9332 1585.75 74.4185 1581.56 80.6098Z" fill="#C66AFF"/>
<path d="M1281.67 131.909V132.029C1281.65 138.444 1278.8 144.855 1273.12 149.723L1248.25 168.414C1234.29 177.63 1217.65 193.743 1211.28 204.221L1195.91 224.49C1186.77 234.63 1158.6 245.931 1133.32 249.598L1082.79 255.764C1056.67 258.318 1016.51 264.99 993.529 270.592L946.934 280.569C922.591 285.144 882.756 285.144 858.415 280.569L811.826 270.595C788.854 264.991 748.685 258.319 722.565 255.764L672.035 249.598C646.751 245.931 618.584 234.631 609.44 224.49L594.072 204.222C587.703 193.744 571.064 177.63 557.099 168.414L532.239 149.726C526.601 144.901 523.76 138.557 523.694 132.197V131.744C523.76 125.383 526.601 119.04 532.239 114.213L557.102 95.5246C571.067 86.3087 587.708 70.1974 594.075 59.7176L609.44 39.4512C618.585 29.3078 646.752 18.0099 672.035 14.3409L722.559 8.17675C748.679 5.62065 788.848 -1.05211 811.82 -6.65662L858.416 -16.6272C882.759 -21.2053 922.593 -21.2053 946.934 -16.6272L993.53 -6.65379C1016.51 -1.05154 1056.67 5.62194 1082.79 8.17675L1133.32 14.3409C1158.6 18.0099 1186.77 29.3076 1195.91 39.4487L1211.28 59.7169C1217.65 70.1968 1234.29 86.3081 1248.25 95.524L1273.12 114.216C1278.8 119.083 1281.65 125.494 1281.67 131.909Z" fill="#FFCDD2"/>
<path d="M939.977 36.9699V37.0895C939.959 43.5051 937.11 49.9158 931.422 54.7837L906.556 73.4747C892.592 82.6906 875.957 98.8038 869.587 109.282L854.216 129.551C845.075 139.691 816.903 150.992 791.624 154.658L741.095 160.824C714.98 163.379 674.811 170.051 651.835 175.653L605.239 185.629C580.897 190.205 541.062 190.205 516.721 185.629L470.132 175.656C447.16 170.051 406.991 163.38 380.871 160.825L330.341 154.659C305.057 150.992 276.89 139.691 267.746 129.551L252.378 109.282C246.009 98.8044 229.37 82.6909 215.404 73.475L190.545 54.7869C184.907 49.9613 182.066 43.6181 182 37.2577V36.8049C182.066 30.4439 184.907 24.1003 190.545 19.2742L215.408 0.585422C229.373 -8.63052 246.014 -24.7418 252.381 -35.2217L267.746 -55.488C276.891 -65.6314 305.058 -76.9293 330.341 -80.5983L380.865 -86.7625C406.985 -89.3186 447.154 -95.9913 470.126 -101.596L516.722 -111.566C541.065 -116.145 580.899 -116.145 605.24 -111.566L651.836 -101.593C674.812 -95.9907 714.981 -89.3173 741.096 -86.7625L791.625 -80.5983C816.904 -76.9293 845.076 -65.6316 854.217 -55.4905L869.584 -35.2223C875.954 -24.7424 892.593 -8.63115 906.557 0.584794L931.423 19.2767C937.111 24.1437 939.96 30.5543 939.977 36.9699Z" fill="#FFB3B3"/>
</g>
</g>
<defs>
<filter id="filter0_f" x="-46.0362" y="-343.036" width="1860.07" height="855.072" filterUnits="userSpaceOnUse" color-interpolation-filters="sRGB">
<feFlood flood-opacity="0" result="BackgroundImageFix"/>
<feBlend mode="normal" in="SourceGraphic" in2="BackgroundImageFix" result="shape"/>
<feGaussianBlur stdDeviation="114.018" result="effect1_foregroundBlur"/>
</filter>
<clipPath id="clip0">
<rect width="1920" height="1080" fill="white"/>
</clipPath>
</defs>
</svg>
